<svg xmlns="http://www.w3.org/2000/svg" viewBox="2587256.0 606056.0 1452422 1323263" fill="none"><path d="M3519448 1247888 L3468851 1232623 L3418826 1222069 L3369817 1215681 L3322268 1212912 L3276599 1213230 L3233254 1216075 L3161283 1224380 L3087242 1241906 L3048799 1255013 L3006889 1271142 L2937204 1305279 L2879571 1341551 L2828619 1381314 L2783953 1423694 L2745167 1467827 L2711843 1512886 L2683585 1557997 L2659988 1602320 L2640646 1644979 L2625152 1685136 L2613113 1721928 L2597720 1781999 L2590354 1825535 L2587256 1854224 L2612478 1868245 L2653804 1887079 L2715348 1907386 L2754997 1916759 L2799942 1924227 L2849752 1928761 L2903994 1929319 L2962185 1924874 L3023920 1914384 L3074288 1900719 L3088715 1896807 L3156139 1871128 L3225748 1836292 L3226713 1835746 L3227590 1835187 L3228542 1834654 L3043376 1886546 L2924707 1900719 L2821278 1874366 L2681858 1804682 L2687586 1778989 L2708287 1710740 L2724301 1670392 L2744774 1627377 L2770237 1582813 L2801200 1537791 L2838195 1493443 L2881730 1450860 L2932327 1411172 L2934016 1410029 L2953638 1397024 L2973234 1385099 L2993744 1373720 L3015169 1362925 L3015233 1363166 L3015893 1362925 L3185387 1300949 L3348557 1266202 L3471125 1251152 L3519448 1247888 Z M3629684 1180451 L3626370 1112430 L3616743 1048524 L3601757 988808 L3582339 933335 L3559453 882179 L3534015 835418 L3507002 793101 L3479329 755306 L3451948 722095 L3443439 712799 L3425811 693533 L3381031 650633 L3346741 622845 L3323259 606056 L3298659 621143 L3261968 647889 L3214051 691552 L3186429 721486 L3157841 756982 L3129444 798156 L3102329 845120 L3077628 898016 L3056457 956931 L3039947 1022019 L3029228 1093367 L3025406 1171117 L3025469 1174342 L3071151 987551 L3117061 877201 L3190798 800048 L3319969 712799 L3339540 730401 L3388841 781951 L3416134 815694 L3443540 854658 L3469867 898714 L3493883 947800 L3514368 1001800 L3530091 1060627 L3539832 1124203 L3539984 1126235 L3541673 1149704 L3542384 1171117 L3542296 1196085 L3541191 1220062 L3540797 1220062 L3511600 1398777 L3461765 1557984 L3414699 1672157 L3393820 1715870 L3431958 1679269 L3465715 1640877 L3495344 1601316 L3521099 1561235 L3543248 1521306 L3562044 1482152 L3590136 1415376 L3611218 1342262 L3618673 1302333 L3625201 1257908 L3625747 1252524 L3629684 1180451 Z M4039678 1854186 L4039094 1842667 L4038332 1827491 L4038218 1825370 L4032325 1780348 L4016958 1717369 L4003915 1678774 L3986453 1636686 L3963923 1592033 L3935691 1545729 L3901096 1498700 L3859516 1451888 L3810304 1406219 L3752811 1362620 L3686402 1322018 L3684497 1321053 L3683532 1320532 L3825594 1450136 L3900461 1543290 L3932859 1644992 L3947565 1800173 L3922737 1808911 L3853877 1827491 L3811167 1835263 L3763834 1840673 L3712552 1842667 L3657967 1840229 L3600754 1832329 L3541584 1817940 L3481120 1796033 L3479253 1795195 L3478300 1794776 L3457841 1785441 L3437343 1775129 L3416832 1763762 L3396322 1751303 L3396500 1751113 L3253625 1639709 L3137762 1519681 L3060089 1423669 L3031730 1384400 L3045573 1435404 L3063112 1483435 L3083635 1528393 L3106470 1570201 L3130917 1608784 L3156279 1644039 L3201440 1700694 L3255504 1754237 L3286975 1779904 L3322852 1806917 L3388702 1847963 L3449992 1877643 L3510698 1899817 L3570299 1915260 L3628287 1924798 L3685234 1929294 L3737380 1929294 L3787469 1925852 L3833900 1919680 L3876166 1911552 L3913758 1902294 L3972876 1883549 L4013694 1866759 L4039678 1854186 Z" fill="#00CED1" fill-rule="nonzero"></path></svg>